<svg width="710" height="520" viewBox="0 0 710 520" fill="none" xmlns="http://www.w3.org/2000/svg">
<rect width="355" height="260" fill="white" transform="scale(2)"/>
<path d="M1 8C1 4.13401 4.13401 1 8 1H137C140.866 1 144 4.13401 144 8V34C144 37.866 140.866 41 137 41H8C4.13401 41 1 37.866 1 34V8Z" transform="translate(38.0198 233.952) scale(2)" stroke="black" stroke-width="2"/>
<path d="M13.0166 19H9.55371L3.96387 9.2793H3.88477C3.99609 10.9961 4.05176 12.2207 4.05176 12.9531V19H1.61719V6.15039H5.05371L10.6348 15.7744H10.6963C10.6084 14.1045 10.5645 12.9238 10.5645 12.2324V6.15039H13.0166V19ZM18.1846 14.0693C18.1846 15.042 18.3428 15.7773 18.6592 16.2754C18.9814 16.7734 19.5029 17.0225 20.2236 17.0225C20.9385 17.0225 21.4512 16.7764 21.7617 16.2842C22.0781 15.7861 22.2363 15.0479 22.2363 14.0693C22.2363 13.0967 22.0781 12.3672 21.7617 11.8809C21.4453 11.3945 20.9268 11.1514 20.2061 11.1514C19.4912 11.1514 18.9756 11.3945 18.6592 11.8809C18.3428 12.3613 18.1846 13.0908 18.1846 14.0693ZM24.9785 14.0693C24.9785 15.6689 24.5566 16.9199 23.7129 17.8223C22.8691 18.7246 21.6943 19.1758 20.1885 19.1758C19.2451 19.1758 18.4131 18.9707 17.6924 18.5605C16.9717 18.1445 16.418 17.5498 16.0312 16.7764C15.6445 16.0029 15.4512 15.1006 15.4512 14.0693C15.4512 12.4639 15.8701 11.2158 16.708 10.3252C17.5459 9.43457 18.7236 8.98926 20.2412 8.98926C21.1846 8.98926 22.0166 9.19434 22.7373 9.60449C23.458 10.0146 24.0117 10.6035 24.3984 11.3711C24.7852 12.1387 24.9785 13.0381 24.9785 14.0693ZM30.3047 19.1758C29.1504 19.1758 28.2422 18.7275 27.5801 17.8311C26.9238 16.9346 26.5957 15.6924 26.5957 14.1045C26.5957 12.4932 26.9297 11.2393 27.5977 10.3428C28.2715 9.44043 29.1973 8.98926 30.375 8.98926C31.6113 8.98926 32.5547 9.46973 33.2051 10.4307H33.293C33.1582 9.69824 33.0908 9.04492 33.0908 8.4707V5.32422H35.7803V19H33.7236L33.2051 17.7256H33.0908C32.4814 18.6924 31.5527 19.1758 30.3047 19.1758ZM31.2451 17.04C31.9307 17.04 32.4316 16.8408 32.748 16.4424C33.0703 16.0439 33.2461 15.3672 33.2754 14.4121V14.1221C33.2754 13.0674 33.1113 12.3115 32.7832 11.8545C32.4609 11.3975 31.9336 11.1689 31.2012 11.1689C30.6035 11.1689 30.1377 11.4238 29.8037 11.9336C29.4756 12.4375 29.3115 13.1729 29.3115 14.1396C29.3115 15.1064 29.4785 15.833 29.8125 16.3193C30.1465 16.7998 30.624 17.04 31.2451 17.04ZM42.6533 10.8965C42.085 10.8965 41.6396 11.0781 41.3174 11.4414C40.9951 11.7988 40.8105 12.3086 40.7637 12.9707H44.5254C44.5137 12.3086 44.3408 11.7988 44.0068 11.4414C43.6729 11.0781 43.2217 10.8965 42.6533 10.8965ZM43.0312 19.1758C41.4492 19.1758 40.2129 18.7393 39.3223 17.8662C38.4316 16.9932 37.9863 15.7568 37.9863 14.1572C37.9863 12.5107 38.3965 11.2393 39.2168 10.3428C40.043 9.44043 41.1826 8.98926 42.6357 8.98926C44.0244 8.98926 45.1055 9.38477 45.8789 10.1758C46.6523 10.9668 47.0391 12.0596 47.0391 13.4541V14.7549H40.7021C40.7314 15.5166 40.957 16.1113 41.3789 16.5391C41.8008 16.9668 42.3926 17.1807 43.1543 17.1807C43.7461 17.1807 44.3057 17.1191 44.833 16.9961C45.3604 16.873 45.9111 16.6768 46.4854 16.4072V18.4814C46.0166 18.7158 45.5156 18.8887 44.9824 19C44.4492 19.1172 43.7988 19.1758 43.0312 19.1758Z" transform="translate(142.02 249.952) scale(2)" fill="black"/>
<path d="M1 8C1 4.13401 4.13401 1 8 1H137C140.866 1 144 4.13401 144 8V34C144 37.866 140.866 41 137 41H8C4.13401 41 1 37.866 1 34V8Z" transform="translate(38.0198 417.952) scale(2)" stroke="#2F80ED" stroke-width="2"/>
<path d="M7.0752 8.2334C6.0498 8.2334 5.25586 8.62012 4.69336 9.39355C4.13086 10.1611 3.84961 11.2334 3.84961 12.6104C3.84961 15.4756 4.9248 16.9082 7.0752 16.9082C7.97754 16.9082 9.07031 16.6826 10.3535 16.2314V18.5166C9.29883 18.9561 8.12109 19.1758 6.82031 19.1758C4.95117 19.1758 3.52148 18.6104 2.53125 17.4795C1.54102 16.3428 1.0459 14.7139 1.0459 12.5928C1.0459 11.2568 1.28906 10.0879 1.77539 9.08594C2.26172 8.07812 2.95898 7.30762 3.86719 6.77441C4.78125 6.23535 5.85059 5.96582 7.0752 5.96582C8.32324 5.96582 9.57715 6.26758 10.8369 6.87109L9.95801 9.08594C9.47754 8.85742 8.99414 8.6582 8.50781 8.48828C8.02148 8.31836 7.54395 8.2334 7.0752 8.2334ZM15.5654 19H12.8848V5.32422H15.5654V19ZM18.2725 6.63379C18.2725 5.76074 18.7588 5.32422 19.7314 5.32422C20.7041 5.32422 21.1904 5.76074 21.1904 6.63379C21.1904 7.0498 21.0674 7.375 20.8213 7.60938C20.5811 7.83789 20.2178 7.95215 19.7314 7.95215C18.7588 7.95215 18.2725 7.5127 18.2725 6.63379ZM21.0674 19H18.3867V9.17383H21.0674V19ZM27.958 10.8965C27.3896 10.8965 26.9443 11.0781 26.6221 11.4414C26.2998 11.7988 26.1152 12.3086 26.0684 12.9707H29.8301C29.8184 12.3086 29.6455 11.7988 29.3115 11.4414C28.9775 11.0781 28.5264 10.8965 27.958 10.8965ZM28.3359 19.1758C26.7539 19.1758 25.5176 18.7393 24.627 17.8662C23.7363 16.9932 23.291 15.7568 23.291 14.1572C23.291 12.5107 23.7012 11.2393 24.5215 10.3428C25.3477 9.44043 26.4873 8.98926 27.9404 8.98926C29.3291 8.98926 30.4102 9.38477 31.1836 10.1758C31.957 10.9668 32.3438 12.0596 32.3438 13.4541V14.7549H26.0068C26.0361 15.5166 26.2617 16.1113 26.6836 16.5391C27.1055 16.9668 27.6973 17.1807 28.459 17.1807C29.0508 17.1807 29.6104 17.1191 30.1377 16.9961C30.665 16.873 31.2158 16.6768 31.79 16.4072V18.4814C31.3213 18.7158 30.8203 18.8887 30.2871 19C29.7539 19.1172 29.1035 19.1758 28.3359 19.1758ZM43.5938 19H40.9131V13.2607C40.9131 12.5518 40.7871 12.0215 40.5352 11.6699C40.2832 11.3125 39.8818 11.1338 39.3311 11.1338C38.5811 11.1338 38.0391 11.3857 37.7051 11.8896C37.3711 12.3877 37.2041 13.2168 37.2041 14.377V19H34.5234V9.17383H36.5713L36.9316 10.4307H37.0811C37.3799 9.95605 37.79 9.59863 38.3115 9.3584C38.8389 9.1123 39.4365 8.98926 40.1045 8.98926C41.2471 8.98926 42.1143 9.2998 42.7061 9.9209C43.2979 10.5361 43.5938 11.4268 43.5938 12.5928V19ZM50.4932 17.04C50.9619 17.04 51.5244 16.9375 52.1807 16.7324V18.7275C51.5127 19.0264 50.6924 19.1758 49.7197 19.1758C48.6475 19.1758 47.8652 18.9062 47.373 18.3672C46.8867 17.8223 46.6436 17.0078 46.6436 15.9238V11.1865H45.3604V10.0527L46.8369 9.15625L47.6104 7.08203H49.3242V9.17383H52.0752V11.1865H49.3242V15.9238C49.3242 16.3047 49.4297 16.5859 49.6406 16.7676C49.8574 16.9492 50.1416 17.04 50.4932 17.04Z" transform="translate(130.02 435.952) scale(2)" fill="#2F80ED"/>
<rect width="19" height="57" transform="translate(68.0198 219.952) scale(2)" fill="white"/>
<path d="M125 0L110 -8.66025V8.66025L125 0ZM0 1.5H111.5V-1.5H0V1.5Z" transform="translate(86.0198 149.952) scale(2) rotate(90)" fill="#F2994A"/>
<path d="M33.5 0L18.5 -8.66025V8.66025L33.5 0ZM0 1.5H20V-1.5H0V1.5Z" transform="translate(138.02 149.952) scale(2) rotate(90)" fill="#6FCF97"/>
<path d="M0 0L15 8.66025V-8.66025L0 0ZM33 -1.5H13.5V1.5H33V-1.5Z" transform="translate(236.02 333.952) scale(2) rotate(90)" fill="#EB5757"/>
<path d="M33.5 0L18.5 -8.66025V8.66025L33.5 0ZM0 1.5H20V-1.5H0V1.5Z" transform="translate(138.02 333.952) scale(2) rotate(90)" fill="#EB5757"/>
<path d="M1 8C1 4.13401 4.13401 1 8 1H137C140.866 1 144 4.13401 144 8V34C144 37.866 140.866 41 137 41H8C4.13401 41 1 37.866 1 34V8Z" transform="translate(378.02 233.952) scale(2)" stroke="black" stroke-width="2"/>
<path d="M13.0166 19H9.55371L3.96387 9.2793H3.88477C3.99609 10.9961 4.05176 12.2207 4.05176 12.9531V19H1.61719V6.15039H5.05371L10.6348 15.7744H10.6963C10.6084 14.1045 10.5645 12.9238 10.5645 12.2324V6.15039H13.0166V19ZM18.1846 14.0693C18.1846 15.042 18.3428 15.7773 18.6592 16.2754C18.9814 16.7734 19.5029 17.0225 20.2236 17.0225C20.9385 17.0225 21.4512 16.7764 21.7617 16.2842C22.0781 15.7861 22.2363 15.0479 22.2363 14.0693C22.2363 13.0967 22.0781 12.3672 21.7617 11.8809C21.4453 11.3945 20.9268 11.1514 20.2061 11.1514C19.4912 11.1514 18.9756 11.3945 18.6592 11.8809C18.3428 12.3613 18.1846 13.0908 18.1846 14.0693ZM24.9785 14.0693C24.9785 15.6689 24.5566 16.9199 23.7129 17.8223C22.8691 18.7246 21.6943 19.1758 20.1885 19.1758C19.2451 19.1758 18.4131 18.9707 17.6924 18.5605C16.9717 18.1445 16.418 17.5498 16.0312 16.7764C15.6445 16.0029 15.4512 15.1006 15.4512 14.0693C15.4512 12.4639 15.8701 11.2158 16.708 10.3252C17.5459 9.43457 18.7236 8.98926 20.2412 8.98926C21.1846 8.98926 22.0166 9.19434 22.7373 9.60449C23.458 10.0146 24.0117 10.6035 24.3984 11.3711C24.7852 12.1387 24.9785 13.0381 24.9785 14.0693ZM30.3047 19.1758C29.1504 19.1758 28.2422 18.7275 27.5801 17.8311C26.9238 16.9346 26.5957 15.6924 26.5957 14.1045C26.5957 12.4932 26.9297 11.2393 27.5977 10.3428C28.2715 9.44043 29.1973 8.98926 30.375 8.98926C31.6113 8.98926 32.5547 9.46973 33.2051 10.4307H33.293C33.1582 9.69824 33.0908 9.04492 33.0908 8.4707V5.32422H35.7803V19H33.7236L33.2051 17.7256H33.0908C32.4814 18.6924 31.5527 19.1758 30.3047 19.1758ZM31.2451 17.04C31.9307 17.04 32.4316 16.8408 32.748 16.4424C33.0703 16.0439 33.2461 15.3672 33.2754 14.4121V14.1221C33.2754 13.0674 33.1113 12.3115 32.7832 11.8545C32.4609 11.3975 31.9336 11.1689 31.2012 11.1689C30.6035 11.1689 30.1377 11.4238 29.8037 11.9336C29.4756 12.4375 29.3115 13.1729 29.3115 14.1396C29.3115 15.1064 29.4785 15.833 29.8125 16.3193C30.1465 16.7998 30.624 17.04 31.2451 17.04ZM42.6533 10.8965C42.085 10.8965 41.6396 11.0781 41.3174 11.4414C40.9951 11.7988 40.8105 12.3086 40.7637 12.9707H44.5254C44.5137 12.3086 44.3408 11.7988 44.0068 11.4414C43.6729 11.0781 43.2217 10.8965 42.6533 10.8965ZM43.0312 19.1758C41.4492 19.1758 40.2129 18.7393 39.3223 17.8662C38.4316 16.9932 37.9863 15.7568 37.9863 14.1572C37.9863 12.5107 38.3965 11.2393 39.2168 10.3428C40.043 9.44043 41.1826 8.98926 42.6357 8.98926C44.0244 8.98926 45.1055 9.38477 45.8789 10.1758C46.6523 10.9668 47.0391 12.0596 47.0391 13.4541V14.7549H40.7021C40.7314 15.5166 40.957 16.1113 41.3789 16.5391C41.8008 16.9668 42.3926 17.1807 43.1543 17.1807C43.7461 17.1807 44.3057 17.1191 44.833 16.9961C45.3604 16.873 45.9111 16.6768 46.4854 16.4072V18.4814C46.0166 18.7158 45.5156 18.8887 44.9824 19C44.4492 19.1172 43.7988 19.1758 43.0312 19.1758Z" transform="translate(482.02 249.952) scale(2)" fill="black"/>
<path d="M1 8C1 4.13401 4.13401 1 8 1H137C140.866 1 144 4.13401 144 8V34C144 37.866 140.866 41 137 41H8C4.13401 41 1 37.866 1 34V8Z" transform="translate(378.02 417.952) scale(2)" stroke="#2F80ED" stroke-width="2"/>
<path d="M7.0752 8.2334C6.0498 8.2334 5.25586 8.62012 4.69336 9.39355C4.13086 10.1611 3.84961 11.2334 3.84961 12.6104C3.84961 15.4756 4.9248 16.9082 7.0752 16.9082C7.97754 16.9082 9.07031 16.6826 10.3535 16.2314V18.5166C9.29883 18.9561 8.12109 19.1758 6.82031 19.1758C4.95117 19.1758 3.52148 18.6104 2.53125 17.4795C1.54102 16.3428 1.0459 14.7139 1.0459 12.5928C1.0459 11.2568 1.28906 10.0879 1.77539 9.08594C2.26172 8.07812 2.95898 7.30762 3.86719 6.77441C4.78125 6.23535 5.85059 5.96582 7.0752 5.96582C8.32324 5.96582 9.57715 6.26758 10.8369 6.87109L9.95801 9.08594C9.47754 8.85742 8.99414 8.6582 8.50781 8.48828C8.02148 8.31836 7.54395 8.2334 7.0752 8.2334ZM15.5654 19H12.8848V5.32422H15.5654V19ZM18.2725 6.63379C18.2725 5.76074 18.7588 5.32422 19.7314 5.32422C20.7041 5.32422 21.1904 5.76074 21.1904 6.63379C21.1904 7.0498 21.0674 7.375 20.8213 7.60938C20.5811 7.83789 20.2178 7.95215 19.7314 7.95215C18.7588 7.95215 18.2725 7.5127 18.2725 6.63379ZM21.0674 19H18.3867V9.17383H21.0674V19ZM27.958 10.8965C27.3896 10.8965 26.9443 11.0781 26.6221 11.4414C26.2998 11.7988 26.1152 12.3086 26.0684 12.9707H29.8301C29.8184 12.3086 29.6455 11.7988 29.3115 11.4414C28.9775 11.0781 28.5264 10.8965 27.958 10.8965ZM28.3359 19.1758C26.7539 19.1758 25.5176 18.7393 24.627 17.8662C23.7363 16.9932 23.291 15.7568 23.291 14.1572C23.291 12.5107 23.7012 11.2393 24.5215 10.3428C25.3477 9.44043 26.4873 8.98926 27.9404 8.98926C29.3291 8.98926 30.4102 9.38477 31.1836 10.1758C31.957 10.9668 32.3438 12.0596 32.3438 13.4541V14.7549H26.0068C26.0361 15.5166 26.2617 16.1113 26.6836 16.5391C27.1055 16.9668 27.6973 17.1807 28.459 17.1807C29.0508 17.1807 29.6104 17.1191 30.1377 16.9961C30.665 16.873 31.2158 16.6768 31.79 16.4072V18.4814C31.3213 18.7158 30.8203 18.8887 30.2871 19C29.7539 19.1172 29.1035 19.1758 28.3359 19.1758ZM43.5938 19H40.9131V13.2607C40.9131 12.5518 40.7871 12.0215 40.5352 11.6699C40.2832 11.3125 39.8818 11.1338 39.3311 11.1338C38.5811 11.1338 38.0391 11.3857 37.7051 11.8896C37.3711 12.3877 37.2041 13.2168 37.2041 14.377V19H34.5234V9.17383H36.5713L36.9316 10.4307H37.0811C37.3799 9.95605 37.79 9.59863 38.3115 9.3584C38.8389 9.1123 39.4365 8.98926 40.1045 8.98926C41.2471 8.98926 42.1143 9.2998 42.7061 9.9209C43.2979 10.5361 43.5938 11.4268 43.5938 12.5928V19ZM50.4932 17.04C50.9619 17.04 51.5244 16.9375 52.1807 16.7324V18.7275C51.5127 19.0264 50.6924 19.1758 49.7197 19.1758C48.6475 19.1758 47.8652 18.9062 47.373 18.3672C46.8867 17.8223 46.6436 17.0078 46.6436 15.9238V11.1865H45.3604V10.0527L46.8369 9.15625L47.6104 7.08203H49.3242V9.17383H52.0752V11.1865H49.3242V15.9238C49.3242 16.3047 49.4297 16.5859 49.6406 16.7676C49.8574 16.9492 50.1416 17.04 50.4932 17.04Z" transform="translate(470.02 435.952) scale(2)" fill="#2F80ED"/>
<rect width="19" height="57" transform="translate(408.02 219.952) scale(2)" fill="white"/>
<path d="M0 0L15 8.66025V-8.66025L0 0ZM33 -1.5H13.5V1.5H33V-1.5Z" transform="translate(624.02 149.952) scale(2) rotate(90)" fill="#F2994A"/>
<path d="M0 0L15 8.66025V-8.66025L0 0ZM33 -1.5H13.5V1.5H33V-1.5Z" transform="translate(576.02 149.952) scale(2) rotate(90)" fill="#6FCF97"/>
<path d="M0 0L15 8.66025V-8.66025L0 0ZM33 -1.5H13.5V1.5H33V-1.5Z" transform="translate(576.02 333.952) scale(2) rotate(90)" fill="#EB5757"/>
<path d="M33.5 0L18.5 -8.66025V8.66025L33.5 0ZM0 1.5H20V-1.5H0V1.5Z" transform="translate(478.02 333.952) scale(2) rotate(90)" fill="#EB5757"/>
<path d="M261.01 24.476C262.621 23.4402 265.239 22.3779 268.51 21.472M46.5099 24.476C44.6714 22.6375 41.4808 21.2046 37.5099 20.4756M37.5099 20.4756C30.6816 19.222 21.5459 20.0499 13.0099 24.476C-0.490088 31.476 -8.99009 52.476 16.0099 52.476H302.51C318.51 52.476 326.01 33.976 310.01 24.476C297.693 17.1627 279.449 18.4424 268.51 21.472M37.5099 20.4756C55.5747 12.5527 67.8138 11.6602 76.0099 13.9789M86.5099 20.4756C84.1299 17.7293 80.7445 15.3184 76.0099 13.9789M268.51 21.472C261.01 1.47598 225.01 -1.22714 218.51 7.27284M227.01 14.976C211.283 -3.09324 189.678 -2.82782 176.01 5.35203M169.01 10.976C170.971 8.85096 173.339 6.9504 176.01 5.35203M156.01 20.4756C152.824 16.0436 148.411 12.916 143.588 10.976M112.01 17.976C113.226 14.9362 115.772 12.5765 119.096 10.976M76.0099 13.9789C96.0099 -1.52403 112.682 3.97597 119.096 10.976M119.096 10.976C125.653 7.81805 135.235 7.61556 143.588 10.976M143.588 10.976C156.01 -0.524033 170.01 3.43121 176.01 5.35203" transform="translate(38 18) scale(2)" stroke="#9B51E0" stroke-width="2" stroke-linecap="round"/>
<path d="M9.20215 15.4316C9.20215 16.5918 8.7832 17.5059 7.94531 18.1738C7.11328 18.8418 5.95312 19.1758 4.46484 19.1758C3.09375 19.1758 1.88086 18.918 0.826172 18.4023V15.8711C1.69336 16.2578 2.42578 16.5303 3.02344 16.6885C3.62695 16.8467 4.17773 16.9258 4.67578 16.9258C5.27344 16.9258 5.73047 16.8115 6.04688 16.583C6.36914 16.3545 6.53027 16.0146 6.53027 15.5635C6.53027 15.3115 6.45996 15.0889 6.31934 14.8955C6.17871 14.6963 5.9707 14.5059 5.69531 14.3242C5.42578 14.1426 4.87207 13.8525 4.03418 13.4541C3.24902 13.085 2.66016 12.7305 2.26758 12.3906C1.875 12.0508 1.56152 11.6553 1.32715 11.2041C1.09277 10.7529 0.975586 10.2256 0.975586 9.62207C0.975586 8.48535 1.35938 7.5918 2.12695 6.94141C2.90039 6.29102 3.9668 5.96582 5.32617 5.96582C5.99414 5.96582 6.62988 6.04492 7.2334 6.20312C7.84277 6.36133 8.47852 6.58398 9.14062 6.87109L8.26172 8.98926C7.57617 8.70801 7.00781 8.51172 6.55664 8.40039C6.11133 8.28906 5.67188 8.2334 5.23828 8.2334C4.72266 8.2334 4.32715 8.35352 4.05176 8.59375C3.77637 8.83398 3.63867 9.14746 3.63867 9.53418C3.63867 9.77441 3.69434 9.98535 3.80566 10.167C3.91699 10.3428 4.09277 10.5156 4.33301 10.6855C4.5791 10.8496 5.15625 11.1484 6.06445 11.582C7.26562 12.1562 8.08887 12.7334 8.53418 13.3135C8.97949 13.8877 9.20215 14.5938 9.20215 15.4316ZM19.3975 19L18.6416 15.5635L17.6221 11.2217H17.5605L15.7676 19H12.8848L10.0898 9.17383H12.7617L13.8955 13.5244C14.0771 14.3037 14.2617 15.3789 14.4492 16.75H14.502C14.5254 16.3047 14.6279 15.5986 14.8096 14.6318L14.9502 13.8848L16.1631 9.17383H19.1162L20.2676 13.8848C20.291 14.0137 20.3262 14.2041 20.373 14.4561C20.4258 14.708 20.4756 14.9775 20.5225 15.2646C20.5693 15.5459 20.6104 15.8242 20.6455 16.0996C20.6865 16.3691 20.71 16.5859 20.7158 16.75H20.7686C20.8213 16.3281 20.915 15.751 21.0498 15.0186C21.1846 14.2803 21.2812 13.7822 21.3398 13.5244L22.5176 9.17383H25.1455L22.3154 19H19.3975ZM32.9766 19L32.458 17.6641H32.3877C31.9365 18.2324 31.4707 18.6279 30.9902 18.8506C30.5156 19.0674 29.8945 19.1758 29.127 19.1758C28.1836 19.1758 27.4395 18.9062 26.8945 18.3672C26.3555 17.8281 26.0859 17.0605 26.0859 16.0645C26.0859 15.0215 26.4492 14.2539 27.1758 13.7617C27.9082 13.2637 29.0098 12.9883 30.4805 12.9355L32.1855 12.8828V12.4521C32.1855 11.4561 31.6758 10.958 30.6562 10.958C29.8711 10.958 28.9482 11.1953 27.8877 11.6699L27 9.85938C28.1309 9.26758 29.3848 8.97168 30.7617 8.97168C32.0801 8.97168 33.0908 9.25879 33.7939 9.83301C34.4971 10.4072 34.8486 11.2803 34.8486 12.4521V19H32.9766ZM32.1855 14.4473L31.1484 14.4824C30.3691 14.5059 29.7891 14.6465 29.4082 14.9043C29.0273 15.1621 28.8369 15.5547 28.8369 16.082C28.8369 16.8379 29.2705 17.2158 30.1377 17.2158C30.7588 17.2158 31.2539 17.0371 31.623 16.6797C31.998 16.3223 32.1855 15.8477 32.1855 15.2559V14.4473ZM43.1016 8.98926C43.4648 8.98926 43.7666 9.01562 44.0068 9.06836L43.8047 11.582C43.5879 11.5234 43.3242 11.4941 43.0137 11.4941C42.1582 11.4941 41.4902 11.7139 41.0098 12.1533C40.5352 12.5928 40.2979 13.208 40.2979 13.999V19H37.6172V9.17383H39.6475L40.043 10.8262H40.1748C40.4795 10.2754 40.8896 9.83301 41.4053 9.49902C41.9268 9.15918 42.4922 8.98926 43.1016 8.98926ZM54.5889 19H51.9082V13.2607C51.9082 12.5518 51.7881 12.0215 51.5479 11.6699C51.3135 11.3125 50.9414 11.1338 50.4316 11.1338C49.7461 11.1338 49.248 11.3857 48.9375 11.8896C48.627 12.3936 48.4717 13.2227 48.4717 14.377V19H45.791V9.17383H47.8389L48.1992 10.4307H48.3486C48.6123 9.97949 48.9932 9.62793 49.4912 9.37598C49.9893 9.11816 50.5605 8.98926 51.2051 8.98926C52.6758 8.98926 53.6719 9.46973 54.1934 10.4307H54.4307C54.6943 9.97363 55.0811 9.61914 55.5908 9.36719C56.1064 9.11523 56.6865 8.98926 57.3311 8.98926C58.4443 8.98926 59.2852 9.27637 59.8535 9.85059C60.4277 10.4189 60.7148 11.333 60.7148 12.5928V19H58.0254V13.2607C58.0254 12.5518 57.9053 12.0215 57.665 11.6699C57.4307 11.3125 57.0586 11.1338 56.5488 11.1338C55.8926 11.1338 55.4004 11.3682 55.0723 11.8369C54.75 12.3057 54.5889 13.0498 54.5889 14.0693V19Z" transform="translate(530.02 69.9519) scale(2)" fill="#9B51E0"/>
<rect width="14" height="14" transform="translate(222.02 109.952) scale(2)" fill="white"/>
<rect width="14" height="14" transform="translate(270.02 109.952) scale(2)" fill="white"/>
<rect width="14" height="14" transform="translate(412.02 109.952) scale(2)" fill="white"/>
<rect width="14" height="14" transform="translate(464.02 109.952) scale(2)" fill="white"/>
<path d="M71 149.5L79.6603 134.5H62.3397L71 149.5ZM1.5 57.5V5H-1.5V57.5H1.5ZM69.5 4.99305V136H72.5V4.99305H69.5ZM5 1.5H66V-1.5H5V1.5ZM72.5 4.99305C72.5 1.40049 69.5871 -1.5 66 -1.5V1.5C67.9357 1.5 69.5 3.06277 69.5 4.99305H72.5ZM1.5 5C1.5 3.067 3.067 1.5 5 1.5V-1.5C1.41015 -1.5 -1.5 1.41015 -1.5 5H1.5Z" transform="translate(284.02 100.952) scale(2)" fill="#F2994A"/>
<path d="M121 67.5L129.66 52.5H112.34L121 67.5ZM1.5 67V5H-1.5V67H1.5ZM119.5 5V54H122.5V5H119.5ZM5 1.5H116V-1.5H5V1.5ZM122.5 5C122.5 1.41015 119.59 -1.5 116 -1.5V1.5C117.933 1.5 119.5 3.067 119.5 5H122.5ZM1.5 5C1.5 3.067 3.067 1.5 5 1.5V-1.5C1.41015 -1.5 -1.5 1.41015 -1.5 5H1.5Z" transform="translate(236.02 81.9519) scale(2)" fill="#6FCF97"/>
</svg>
