<svg width="710" height="520" viewBox="0 0 710 520" fill="none" xmlns="http://www.w3.org/2000/svg">
<rect width="355" height="260" fill="white" transform="scale(2)"/>
<path d="M0 0L10 5.7735V-5.7735L0 0ZM19 -1H9V1H19V-1Z" transform="translate(402 350) scale(2) rotate(90)" fill="#EB5757"/>
<path d="M4.7168 5.82227C4.0332 5.82227 3.50391 6.08008 3.12891 6.5957C2.75391 7.10742 2.56641 7.82227 2.56641 8.74023C2.56641 10.6504 3.2832 11.6055 4.7168 11.6055C5.31836 11.6055 6.04688 11.4551 6.90234 11.1543V12.6777C6.19922 12.9707 5.41406 13.1172 4.54688 13.1172C3.30078 13.1172 2.34766 12.7402 1.6875 11.9863C1.02734 11.2285 0.697266 10.1426 0.697266 8.72852C0.697266 7.83789 0.859375 7.05859 1.18359 6.39062C1.50781 5.71875 1.97266 5.20508 2.57812 4.84961C3.1875 4.49023 3.90039 4.31055 4.7168 4.31055C5.54883 4.31055 6.38477 4.51172 7.22461 4.91406L6.63867 6.39062C6.31836 6.23828 5.99609 6.10547 5.67188 5.99219C5.34766 5.87891 5.0293 5.82227 4.7168 5.82227ZM10.377 13H8.58984V3.88281H10.377V13ZM12.1816 4.75586C12.1816 4.17383 12.5059 3.88281 13.1543 3.88281C13.8027 3.88281 14.127 4.17383 14.127 4.75586C14.127 5.0332 14.0449 5.25 13.8809 5.40625C13.7207 5.55859 13.4785 5.63477 13.1543 5.63477C12.5059 5.63477 12.1816 5.3418 12.1816 4.75586ZM14.0449 13H12.2578V6.44922H14.0449V13ZM18.6387 7.59766C18.2598 7.59766 17.9629 7.71875 17.748 7.96094C17.5332 8.19922 17.4102 8.53906 17.3789 8.98047H19.8867C19.8789 8.53906 19.7637 8.19922 19.541 7.96094C19.3184 7.71875 19.0176 7.59766 18.6387 7.59766ZM18.8906 13.1172C17.8359 13.1172 17.0117 12.8262 16.418 12.2441C15.8242 11.6621 15.5273 10.8379 15.5273 9.77148C15.5273 8.67383 15.8008 7.82617 16.3477 7.22852C16.8984 6.62695 17.6582 6.32617 18.627 6.32617C19.5527 6.32617 20.2734 6.58984 20.7891 7.11719C21.3047 7.64453 21.5625 8.37305 21.5625 9.30273V10.1699H17.3379C17.3574 10.6777 17.5078 11.0742 17.7891 11.3594C18.0703 11.6445 18.4648 11.7871 18.9727 11.7871C19.3672 11.7871 19.7402 11.7461 20.0918 11.6641C20.4434 11.582 20.8105 11.4512 21.1934 11.2715V12.6543C20.8809 12.8105 20.5469 12.9258 20.1914 13C19.8359 13.0781 19.4023 13.1172 18.8906 13.1172ZM29.0625 13H27.2754V9.17383C27.2754 8.70117 27.1914 8.34766 27.0234 8.11328C26.8555 7.875 26.5879 7.75586 26.2207 7.75586C25.7207 7.75586 25.3594 7.92383 25.1367 8.25977C24.9141 8.5918 24.8027 9.14453 24.8027 9.91797V13H23.0156V6.44922H24.3809L24.6211 7.28711H24.7207C24.9199 6.9707 25.1934 6.73242 25.541 6.57227C25.8926 6.4082 26.291 6.32617 26.7363 6.32617C27.498 6.32617 28.0762 6.5332 28.4707 6.94727C28.8652 7.35742 29.0625 7.95117 29.0625 8.72852V13ZM33.6621 11.6934C33.9746 11.6934 34.3496 11.625 34.7871 11.4883V12.8184C34.3418 13.0176 33.7949 13.1172 33.1465 13.1172C32.4316 13.1172 31.9102 12.9375 31.582 12.5781C31.2578 12.2148 31.0957 11.6719 31.0957 10.9492V7.79102H30.2402V7.03516L31.2246 6.4375L31.7402 5.05469H32.8828V6.44922H34.7168V7.79102H32.8828V10.9492C32.8828 11.2031 32.9531 11.3906 33.0938 11.5117C33.2383 11.6328 33.4277 11.6934 33.6621 11.6934ZM41.1914 8.23633H41.7773C42.3516 8.23633 42.7754 8.14062 43.0488 7.94922C43.3223 7.75781 43.459 7.45703 43.459 7.04688C43.459 6.64062 43.3184 6.35156 43.0371 6.17969C42.7598 6.00781 42.3281 5.92188 41.7422 5.92188H41.1914V8.23633ZM41.1914 9.71289V13H39.375V4.43359H41.8711C43.0352 4.43359 43.8965 4.64648 44.4551 5.07227C45.0137 5.49414 45.293 6.13672 45.293 7C45.293 7.50391 45.1543 7.95312 44.877 8.34766C44.5996 8.73828 44.207 9.04492 43.6992 9.26758C44.9883 11.1934 45.8281 12.4375 46.2188 13H44.2031L42.1582 9.71289H41.1914ZM49.8691 7.59766C49.4902 7.59766 49.1934 7.71875 48.9785 7.96094C48.7637 8.19922 48.6406 8.53906 48.6094 8.98047H51.1172C51.1094 8.53906 50.9941 8.19922 50.7715 7.96094C50.5488 7.71875 50.248 7.59766 49.8691 7.59766ZM50.1211 13.1172C49.0664 13.1172 48.2422 12.8262 47.6484 12.2441C47.0547 11.6621 46.7578 10.8379 46.7578 9.77148C46.7578 8.67383 47.0312 7.82617 47.5781 7.22852C48.1289 6.62695 48.8887 6.32617 49.8574 6.32617C50.7832 6.32617 51.5039 6.58984 52.0195 7.11719C52.5352 7.64453 52.793 8.37305 52.793 9.30273V10.1699H48.5684C48.5879 10.6777 48.7383 11.0742 49.0195 11.3594C49.3008 11.6445 49.6953 11.7871 50.2031 11.7871C50.5977 11.7871 50.9707 11.7461 51.3223 11.6641C51.6738 11.582 52.041 11.4512 52.4238 11.2715V12.6543C52.1113 12.8105 51.7773 12.9258 51.4219 13C51.0664 13.0781 50.6328 13.1172 50.1211 13.1172ZM56.959 11.7168C57.4121 11.7168 57.7441 11.5879 57.9551 11.3301C58.166 11.0684 58.2812 10.6133 58.3008 9.96484V9.74805C58.3008 9.04492 58.1914 8.54102 57.9727 8.23633C57.7578 7.93164 57.4102 7.7793 56.9297 7.7793C56.0898 7.7793 55.6699 8.43945 55.6699 9.75977C55.6699 10.416 55.7734 10.9062 55.9805 11.2305C56.1914 11.5547 56.5176 11.7168 56.959 11.7168ZM56.3203 13.1172C55.5469 13.1172 54.9414 12.8203 54.5039 12.2266C54.0664 11.6289 53.8477 10.7988 53.8477 9.73633C53.8477 8.66602 54.0703 7.83008 54.5156 7.22852C54.9648 6.62695 55.5781 6.32617 56.3555 6.32617C56.7695 6.32617 57.1309 6.4043 57.4395 6.56055C57.748 6.7168 58.0195 6.95898 58.2539 7.28711H58.3008L58.459 6.44922H59.9707V15.8828H58.1777V13.1348C58.1777 12.8965 58.2031 12.5684 58.2539 12.1504H58.1777C57.9863 12.4668 57.7324 12.707 57.416 12.8711C57.0996 13.0352 56.7344 13.1172 56.3203 13.1172ZM66.4805 13L66.2402 12.1621H66.1465C65.9551 12.4668 65.6836 12.7031 65.332 12.8711C64.9805 13.0352 64.5801 13.1172 64.1309 13.1172C63.3613 13.1172 62.7812 12.9121 62.3906 12.502C62 12.0879 61.8047 11.4941 61.8047 10.7207V6.44922H63.5918V10.2754C63.5918 10.748 63.6758 11.1035 63.8438 11.3418C64.0117 11.5762 64.2793 11.6934 64.6465 11.6934C65.1465 11.6934 65.5078 11.5273 65.7305 11.1953C65.9531 10.8594 66.0645 10.3047 66.0645 9.53125V6.44922H67.8516V13H66.4805ZM72.4395 7.59766C72.0605 7.59766 71.7637 7.71875 71.5488 7.96094C71.334 8.19922 71.2109 8.53906 71.1797 8.98047H73.6875C73.6797 8.53906 73.5645 8.19922 73.3418 7.96094C73.1191 7.71875 72.8184 7.59766 72.4395 7.59766ZM72.6914 13.1172C71.6367 13.1172 70.8125 12.8262 70.2188 12.2441C69.625 11.6621 69.3281 10.8379 69.3281 9.77148C69.3281 8.67383 69.6016 7.82617 70.1484 7.22852C70.6992 6.62695 71.459 6.32617 72.4277 6.32617C73.3535 6.32617 74.0742 6.58984 74.5898 7.11719C75.1055 7.64453 75.3633 8.37305 75.3633 9.30273V10.1699H71.1387C71.1582 10.6777 71.3086 11.0742 71.5898 11.3594C71.8711 11.6445 72.2656 11.7871 72.7734 11.7871C73.168 11.7871 73.541 11.7461 73.8926 11.6641C74.2441 11.582 74.6113 11.4512 74.9941 11.2715V12.6543C74.6816 12.8105 74.3477 12.9258 73.9922 13C73.6367 13.0781 73.2031 13.1172 72.6914 13.1172ZM81.3867 11.0547C81.3867 11.7266 81.1523 12.2383 80.6836 12.5898C80.2188 12.9414 79.5215 13.1172 78.5918 13.1172C78.1152 13.1172 77.709 13.084 77.373 13.0176C77.0371 12.9551 76.7227 12.8613 76.4297 12.7363V11.2598C76.7617 11.416 77.1348 11.5469 77.5488 11.6523C77.9668 11.7578 78.334 11.8105 78.6504 11.8105C79.2988 11.8105 79.623 11.623 79.623 11.248C79.623 11.1074 79.5801 10.9941 79.4941 10.9082C79.4082 10.8184 79.2598 10.7188 79.0488 10.6094C78.8379 10.4961 78.5566 10.3652 78.2051 10.2168C77.7012 10.0059 77.3301 9.81055 77.0918 9.63086C76.8574 9.45117 76.6855 9.24609 76.5762 9.01562C76.4707 8.78125 76.418 8.49414 76.418 8.1543C76.418 7.57227 76.6426 7.12305 77.0918 6.80664C77.5449 6.48633 78.1855 6.32617 79.0137 6.32617C79.8027 6.32617 80.5703 6.49805 81.3164 6.8418L80.7773 8.13086C80.4492 7.99023 80.1426 7.875 79.8574 7.78516C79.5723 7.69531 79.2812 7.65039 78.9844 7.65039C78.457 7.65039 78.1934 7.79297 78.1934 8.07812C78.1934 8.23828 78.2773 8.37695 78.4453 8.49414C78.6172 8.61133 78.9902 8.78516 79.5645 9.01562C80.0762 9.22266 80.4512 9.41602 80.6895 9.5957C80.9277 9.77539 81.1035 9.98242 81.2168 10.2168C81.3301 10.4512 81.3867 10.7305 81.3867 11.0547ZM85.541 11.6934C85.8535 11.6934 86.2285 11.625 86.666 11.4883V12.8184C86.2207 13.0176 85.6738 13.1172 85.0254 13.1172C84.3105 13.1172 83.7891 12.9375 83.4609 12.5781C83.1367 12.2148 82.9746 11.6719 82.9746 10.9492V7.79102H82.1191V7.03516L83.1035 6.4375L83.6191 5.05469H84.7617V6.44922H86.5957V7.79102H84.7617V10.9492C84.7617 11.2031 84.832 11.3906 84.9727 11.5117C85.1172 11.6328 85.3066 11.6934 85.541 11.6934Z" transform="translate(422 352) scale(2)" fill="#EB5757"/>
<path d="M0 0L10 5.7735V-5.7735L0 0ZM19 -1H9V1H19V-1Z" transform="translate(402 404) scale(2) rotate(90)" fill="#6FCF97"/>
<path d="M6.13477 10.6211C6.13477 11.3945 5.85547 12.0039 5.29688 12.4492C4.74219 12.8945 3.96875 13.1172 2.97656 13.1172C2.0625 13.1172 1.25391 12.9453 0.550781 12.6016V10.9141C1.12891 11.1719 1.61719 11.3535 2.01562 11.459C2.41797 11.5645 2.78516 11.6172 3.11719 11.6172C3.51562 11.6172 3.82031 11.541 4.03125 11.3887C4.24609 11.2363 4.35352 11.0098 4.35352 10.709C4.35352 10.541 4.30664 10.3926 4.21289 10.2637C4.11914 10.1309 3.98047 10.0039 3.79688 9.88281C3.61719 9.76172 3.24805 9.56836 2.68945 9.30273C2.16602 9.05664 1.77344 8.82031 1.51172 8.59375C1.25 8.36719 1.04102 8.10352 0.884766 7.80273C0.728516 7.50195 0.650391 7.15039 0.650391 6.74805C0.650391 5.99023 0.90625 5.39453 1.41797 4.96094C1.93359 4.52734 2.64453 4.31055 3.55078 4.31055C3.99609 4.31055 4.41992 4.36328 4.82227 4.46875C5.22852 4.57422 5.65234 4.72266 6.09375 4.91406L5.50781 6.32617C5.05078 6.13867 4.67188 6.00781 4.37109 5.93359C4.07422 5.85938 3.78125 5.82227 3.49219 5.82227C3.14844 5.82227 2.88477 5.90234 2.70117 6.0625C2.51758 6.22266 2.42578 6.43164 2.42578 6.68945C2.42578 6.84961 2.46289 6.99023 2.53711 7.11133C2.61133 7.22852 2.72852 7.34375 2.88867 7.45703C3.05273 7.56641 3.4375 7.76562 4.04297 8.05469C4.84375 8.4375 5.39258 8.82227 5.68945 9.20898C5.98633 9.5918 6.13477 10.0625 6.13477 10.6211ZM10.2598 7.59766C9.88086 7.59766 9.58398 7.71875 9.36914 7.96094C9.1543 8.19922 9.03125 8.53906 9 8.98047H11.5078C11.5 8.53906 11.3848 8.19922 11.1621 7.96094C10.9395 7.71875 10.6387 7.59766 10.2598 7.59766ZM10.5117 13.1172C9.45703 13.1172 8.63281 12.8262 8.03906 12.2441C7.44531 11.6621 7.14844 10.8379 7.14844 9.77148C7.14844 8.67383 7.42188 7.82617 7.96875 7.22852C8.51953 6.62695 9.2793 6.32617 10.248 6.32617C11.1738 6.32617 11.8945 6.58984 12.4102 7.11719C12.9258 7.64453 13.1836 8.37305 13.1836 9.30273V10.1699H8.95898C8.97852 10.6777 9.12891 11.0742 9.41016 11.3594C9.69141 11.6445 10.0859 11.7871 10.5938 11.7871C10.9883 11.7871 11.3613 11.7461 11.7129 11.6641C12.0645 11.582 12.4316 11.4512 12.8145 11.2715V12.6543C12.502 12.8105 12.168 12.9258 11.8125 13C11.457 13.0781 11.0234 13.1172 10.5117 13.1172ZM18.293 6.32617C18.5352 6.32617 18.7363 6.34375 18.8965 6.37891L18.7617 8.05469C18.6172 8.01562 18.4414 7.99609 18.2344 7.99609C17.6641 7.99609 17.2188 8.14258 16.8984 8.43555C16.582 8.72852 16.4238 9.13867 16.4238 9.66602V13H14.6367V6.44922H15.9902L16.2539 7.55078H16.3418C16.5449 7.18359 16.8184 6.88867 17.1621 6.66602C17.5098 6.43945 17.8867 6.32617 18.293 6.32617ZM21.6445 13L19.1484 6.44922H21.0176L22.2832 10.1816C22.4238 10.6543 22.5117 11.1016 22.5469 11.5234H22.582C22.6016 11.1484 22.6895 10.7012 22.8457 10.1816L24.1055 6.44922H25.9746L23.4785 13H21.6445ZM29.6309 7.59766C29.252 7.59766 28.9551 7.71875 28.7402 7.96094C28.5254 8.19922 28.4023 8.53906 28.3711 8.98047H30.8789C30.8711 8.53906 30.7559 8.19922 30.5332 7.96094C30.3105 7.71875 30.0098 7.59766 29.6309 7.59766ZM29.8828 13.1172C28.8281 13.1172 28.0039 12.8262 27.4102 12.2441C26.8164 11.6621 26.5195 10.8379 26.5195 9.77148C26.5195 8.67383 26.793 7.82617 27.3398 7.22852C27.8906 6.62695 28.6504 6.32617 29.6191 6.32617C30.5449 6.32617 31.2656 6.58984 31.7812 7.11719C32.2969 7.64453 32.5547 8.37305 32.5547 9.30273V10.1699H28.3301C28.3496 10.6777 28.5 11.0742 28.7812 11.3594C29.0625 11.6445 29.457 11.7871 29.9648 11.7871C30.3594 11.7871 30.7324 11.7461 31.084 11.6641C31.4355 11.582 31.8027 11.4512 32.1855 11.2715V12.6543C31.873 12.8105 31.5391 12.9258 31.1836 13C30.8281 13.0781 30.3945 13.1172 29.8828 13.1172ZM37.6641 6.32617C37.9062 6.32617 38.1074 6.34375 38.2676 6.37891L38.1328 8.05469C37.9883 8.01562 37.8125 7.99609 37.6055 7.99609C37.0352 7.99609 36.5898 8.14258 36.2695 8.43555C35.9531 8.72852 35.7949 9.13867 35.7949 9.66602V13H34.0078V6.44922H35.3613L35.625 7.55078H35.7129C35.916 7.18359 36.1895 6.88867 36.5332 6.66602C36.8809 6.43945 37.2578 6.32617 37.6641 6.32617ZM44.5312 8.23633H45.1172C45.6914 8.23633 46.1152 8.14062 46.3887 7.94922C46.6621 7.75781 46.7988 7.45703 46.7988 7.04688C46.7988 6.64062 46.6582 6.35156 46.377 6.17969C46.0996 6.00781 45.668 5.92188 45.082 5.92188H44.5312V8.23633ZM44.5312 9.71289V13H42.7148V4.43359H45.2109C46.375 4.43359 47.2363 4.64648 47.7949 5.07227C48.3535 5.49414 48.6328 6.13672 48.6328 7C48.6328 7.50391 48.4941 7.95312 48.2168 8.34766C47.9395 8.73828 47.5469 9.04492 47.0391 9.26758C48.3281 11.1934 49.168 12.4375 49.5586 13H47.543L45.498 9.71289H44.5312ZM53.209 7.59766C52.8301 7.59766 52.5332 7.71875 52.3184 7.96094C52.1035 8.19922 51.9805 8.53906 51.9492 8.98047H54.457C54.4492 8.53906 54.334 8.19922 54.1113 7.96094C53.8887 7.71875 53.5879 7.59766 53.209 7.59766ZM53.4609 13.1172C52.4062 13.1172 51.582 12.8262 50.9883 12.2441C50.3945 11.6621 50.0977 10.8379 50.0977 9.77148C50.0977 8.67383 50.3711 7.82617 50.918 7.22852C51.4688 6.62695 52.2285 6.32617 53.1973 6.32617C54.123 6.32617 54.8438 6.58984 55.3594 7.11719C55.875 7.64453 56.1328 8.37305 56.1328 9.30273V10.1699H51.9082C51.9277 10.6777 52.0781 11.0742 52.3594 11.3594C52.6406 11.6445 53.0352 11.7871 53.543 11.7871C53.9375 11.7871 54.3105 11.7461 54.6621 11.6641C55.0137 11.582 55.3809 11.4512 55.7637 11.2715V12.6543C55.4512 12.8105 55.1172 12.9258 54.7617 13C54.4062 13.0781 53.9727 13.1172 53.4609 13.1172ZM60.2988 11.7168C60.752 11.7168 61.084 11.5879 61.2949 11.3301C61.5059 11.0684 61.6211 10.6133 61.6406 9.96484V9.74805C61.6406 9.04492 61.5312 8.54102 61.3125 8.23633C61.0977 7.93164 60.75 7.7793 60.2695 7.7793C59.4297 7.7793 59.0098 8.43945 59.0098 9.75977C59.0098 10.416 59.1133 10.9062 59.3203 11.2305C59.5312 11.5547 59.8574 11.7168 60.2988 11.7168ZM59.6602 13.1172C58.8867 13.1172 58.2812 12.8203 57.8438 12.2266C57.4062 11.6289 57.1875 10.7988 57.1875 9.73633C57.1875 8.66602 57.4102 7.83008 57.8555 7.22852C58.3047 6.62695 58.918 6.32617 59.6953 6.32617C60.1094 6.32617 60.4707 6.4043 60.7793 6.56055C61.0879 6.7168 61.3594 6.95898 61.5938 7.28711H61.6406L61.7988 6.44922H63.3105V15.8828H61.5176V13.1348C61.5176 12.8965 61.543 12.5684 61.5938 12.1504H61.5176C61.3262 12.4668 61.0723 12.707 60.7559 12.8711C60.4395 13.0352 60.0742 13.1172 59.6602 13.1172ZM69.8203 13L69.5801 12.1621H69.4863C69.2949 12.4668 69.0234 12.7031 68.6719 12.8711C68.3203 13.0352 67.9199 13.1172 67.4707 13.1172C66.7012 13.1172 66.1211 12.9121 65.7305 12.502C65.3398 12.0879 65.1445 11.4941 65.1445 10.7207V6.44922H66.9316V10.2754C66.9316 10.748 67.0156 11.1035 67.1836 11.3418C67.3516 11.5762 67.6191 11.6934 67.9863 11.6934C68.4863 11.6934 68.8477 11.5273 69.0703 11.1953C69.293 10.8594 69.4043 10.3047 69.4043 9.53125V6.44922H71.1914V13H69.8203ZM75.7793 7.59766C75.4004 7.59766 75.1035 7.71875 74.8887 7.96094C74.6738 8.19922 74.5508 8.53906 74.5195 8.98047H77.0273C77.0195 8.53906 76.9043 8.19922 76.6816 7.96094C76.459 7.71875 76.1582 7.59766 75.7793 7.59766ZM76.0312 13.1172C74.9766 13.1172 74.1523 12.8262 73.5586 12.2441C72.9648 11.6621 72.668 10.8379 72.668 9.77148C72.668 8.67383 72.9414 7.82617 73.4883 7.22852C74.0391 6.62695 74.7988 6.32617 75.7676 6.32617C76.6934 6.32617 77.4141 6.58984 77.9297 7.11719C78.4453 7.64453 78.7031 8.37305 78.7031 9.30273V10.1699H74.4785C74.498 10.6777 74.6484 11.0742 74.9297 11.3594C75.2109 11.6445 75.6055 11.7871 76.1133 11.7871C76.5078 11.7871 76.8809 11.7461 77.2324 11.6641C77.584 11.582 77.9512 11.4512 78.334 11.2715V12.6543C78.0215 12.8105 77.6875 12.9258 77.332 13C76.9766 13.0781 76.543 13.1172 76.0312 13.1172ZM84.7266 11.0547C84.7266 11.7266 84.4922 12.2383 84.0234 12.5898C83.5586 12.9414 82.8613 13.1172 81.9316 13.1172C81.4551 13.1172 81.0488 13.084 80.7129 13.0176C80.377 12.9551 80.0625 12.8613 79.7695 12.7363V11.2598C80.1016 11.416 80.4746 11.5469 80.8887 11.6523C81.3066 11.7578 81.6738 11.8105 81.9902 11.8105C82.6387 11.8105 82.9629 11.623 82.9629 11.248C82.9629 11.1074 82.9199 10.9941 82.834 10.9082C82.748 10.8184 82.5996 10.7188 82.3887 10.6094C82.1777 10.4961 81.8965 10.3652 81.5449 10.2168C81.041 10.0059 80.6699 9.81055 80.4316 9.63086C80.1973 9.45117 80.0254 9.24609 79.916 9.01562C79.8105 8.78125 79.7578 8.49414 79.7578 8.1543C79.7578 7.57227 79.9824 7.12305 80.4316 6.80664C80.8848 6.48633 81.5254 6.32617 82.3535 6.32617C83.1426 6.32617 83.9102 6.49805 84.6562 6.8418L84.1172 8.13086C83.7891 7.99023 83.4824 7.875 83.1973 7.78516C82.9121 7.69531 82.6211 7.65039 82.3242 7.65039C81.7969 7.65039 81.5332 7.79297 81.5332 8.07812C81.5332 8.23828 81.6172 8.37695 81.7852 8.49414C81.957 8.61133 82.3301 8.78516 82.9043 9.01562C83.416 9.22266 83.791 9.41602 84.0293 9.5957C84.2676 9.77539 84.4434 9.98242 84.5566 10.2168C84.6699 10.4512 84.7266 10.7305 84.7266 11.0547ZM88.8809 11.6934C89.1934 11.6934 89.5684 11.625 90.0059 11.4883V12.8184C89.5605 13.0176 89.0137 13.1172 88.3652 13.1172C87.6504 13.1172 87.1289 12.9375 86.8008 12.5781C86.4766 12.2148 86.3145 11.6719 86.3145 10.9492V7.79102H85.459V7.03516L86.4434 6.4375L86.959 5.05469H88.1016V6.44922H89.9355V7.79102H88.1016V10.9492C88.1016 11.2031 88.1719 11.3906 88.3125 11.5117C88.457 11.6328 88.6465 11.6934 88.8809 11.6934Z" transform="translate(422 406) scale(2)" fill="#6FCF97"/>
<path d="M0 0L10 5.7735V-5.7735L0 0ZM19 -1H9V1H19V-1Z" transform="translate(402 460) scale(2) rotate(90)" fill="#F2994A"/>
<path d="M2.89453 8.23633H3.48047C4.05469 8.23633 4.47852 8.14062 4.75195 7.94922C5.02539 7.75781 5.16211 7.45703 5.16211 7.04688C5.16211 6.64062 5.02148 6.35156 4.74023 6.17969C4.46289 6.00781 4.03125 5.92188 3.44531 5.92188H2.89453V8.23633ZM2.89453 9.71289V13H1.07812V4.43359H3.57422C4.73828 4.43359 5.59961 4.64648 6.1582 5.07227C6.7168 5.49414 6.99609 6.13672 6.99609 7C6.99609 7.50391 6.85742 7.95312 6.58008 8.34766C6.30273 8.73828 5.91016 9.04492 5.40234 9.26758C6.69141 11.1934 7.53125 12.4375 7.92188 13H5.90625L3.86133 9.71289H2.89453ZM11.5723 7.59766C11.1934 7.59766 10.8965 7.71875 10.6816 7.96094C10.4668 8.19922 10.3438 8.53906 10.3125 8.98047H12.8203C12.8125 8.53906 12.6973 8.19922 12.4746 7.96094C12.252 7.71875 11.9512 7.59766 11.5723 7.59766ZM11.8242 13.1172C10.7695 13.1172 9.94531 12.8262 9.35156 12.2441C8.75781 11.6621 8.46094 10.8379 8.46094 9.77148C8.46094 8.67383 8.73438 7.82617 9.28125 7.22852C9.83203 6.62695 10.5918 6.32617 11.5605 6.32617C12.4863 6.32617 13.207 6.58984 13.7227 7.11719C14.2383 7.64453 14.4961 8.37305 14.4961 9.30273V10.1699H10.2715C10.291 10.6777 10.4414 11.0742 10.7227 11.3594C11.0039 11.6445 11.3984 11.7871 11.9062 11.7871C12.3008 11.7871 12.6738 11.7461 13.0254 11.6641C13.377 11.582 13.7441 11.4512 14.127 11.2715V12.6543C13.8145 12.8105 13.4805 12.9258 13.125 13C12.7695 13.0781 12.3359 13.1172 11.8242 13.1172ZM21.8145 13H20.0273V9.17383C20.0273 8.70117 19.9473 8.34766 19.7871 8.11328C19.6309 7.875 19.3828 7.75586 19.043 7.75586C18.5859 7.75586 18.2539 7.92383 18.0469 8.25977C17.8398 8.5957 17.7363 9.14844 17.7363 9.91797V13H15.9492V6.44922H17.3145L17.5547 7.28711H17.6543C17.8301 6.98633 18.084 6.75195 18.416 6.58398C18.748 6.41211 19.1289 6.32617 19.5586 6.32617C20.5391 6.32617 21.2031 6.64648 21.5508 7.28711H21.709C21.8848 6.98242 22.1426 6.74609 22.4824 6.57812C22.8262 6.41016 23.2129 6.32617 23.6426 6.32617C24.3848 6.32617 24.9453 6.51758 25.3242 6.90039C25.707 7.2793 25.8984 7.88867 25.8984 8.72852V13H24.1055V9.17383C24.1055 8.70117 24.0254 8.34766 23.8652 8.11328C23.709 7.875 23.4609 7.75586 23.1211 7.75586C22.6836 7.75586 22.3555 7.91211 22.1367 8.22461C21.9219 8.53711 21.8145 9.0332 21.8145 9.71289V13ZM29.1621 9.71289C29.1621 10.3613 29.2676 10.8516 29.4785 11.1836C29.6934 11.5156 30.041 11.6816 30.5215 11.6816C30.998 11.6816 31.3398 11.5176 31.5469 11.1895C31.7578 10.8574 31.8633 10.3652 31.8633 9.71289C31.8633 9.06445 31.7578 8.57812 31.5469 8.25391C31.3359 7.92969 30.9902 7.76758 30.5098 7.76758C30.0332 7.76758 29.6895 7.92969 29.4785 8.25391C29.2676 8.57422 29.1621 9.06055 29.1621 9.71289ZM33.6914 9.71289C33.6914 10.7793 33.4102 11.6133 32.8477 12.2148C32.2852 12.8164 31.502 13.1172 30.498 13.1172C29.8691 13.1172 29.3145 12.9805 28.834 12.707C28.3535 12.4297 27.9844 12.0332 27.7266 11.5176C27.4688 11.002 27.3398 10.4004 27.3398 9.71289C27.3398 8.64258 27.6191 7.81055 28.1777 7.2168C28.7363 6.62305 29.5215 6.32617 30.5332 6.32617C31.1621 6.32617 31.7168 6.46289 32.1973 6.73633C32.6777 7.00977 33.0469 7.40234 33.3047 7.91406C33.5625 8.42578 33.6914 9.02539 33.6914 9.71289ZM37.9277 11.6934C38.2402 11.6934 38.6152 11.625 39.0527 11.4883V12.8184C38.6074 13.0176 38.0605 13.1172 37.4121 13.1172C36.6973 13.1172 36.1758 12.9375 35.8477 12.5781C35.5234 12.2148 35.3613 11.6719 35.3613 10.9492V7.79102H34.5059V7.03516L35.4902 6.4375L36.0059 5.05469H37.1484V6.44922H38.9824V7.79102H37.1484V10.9492C37.1484 11.2031 37.2188 11.3906 37.3594 11.5117C37.5039 11.6328 37.6934 11.6934 37.9277 11.6934ZM43.0957 7.59766C42.7168 7.59766 42.4199 7.71875 42.2051 7.96094C41.9902 8.19922 41.8672 8.53906 41.8359 8.98047H44.3438C44.3359 8.53906 44.2207 8.19922 43.998 7.96094C43.7754 7.71875 43.4746 7.59766 43.0957 7.59766ZM43.3477 13.1172C42.293 13.1172 41.4688 12.8262 40.875 12.2441C40.2812 11.6621 39.9844 10.8379 39.9844 9.77148C39.9844 8.67383 40.2578 7.82617 40.8047 7.22852C41.3555 6.62695 42.1152 6.32617 43.084 6.32617C44.0098 6.32617 44.7305 6.58984 45.2461 7.11719C45.7617 7.64453 46.0195 8.37305 46.0195 9.30273V10.1699H41.7949C41.8145 10.6777 41.9648 11.0742 42.2461 11.3594C42.5273 11.6445 42.9219 11.7871 43.4297 11.7871C43.8242 11.7871 44.1973 11.7461 44.5488 11.6641C44.9004 11.582 45.2676 11.4512 45.6504 11.2715V12.6543C45.3379 12.8105 45.0039 12.9258 44.6484 13C44.293 13.0781 43.8594 13.1172 43.3477 13.1172ZM54.3691 5.82227C53.6855 5.82227 53.1562 6.08008 52.7812 6.5957C52.4062 7.10742 52.2188 7.82227 52.2188 8.74023C52.2188 10.6504 52.9355 11.6055 54.3691 11.6055C54.9707 11.6055 55.6992 11.4551 56.5547 11.1543V12.6777C55.8516 12.9707 55.0664 13.1172 54.1992 13.1172C52.9531 13.1172 52 12.7402 51.3398 11.9863C50.6797 11.2285 50.3496 10.1426 50.3496 8.72852C50.3496 7.83789 50.5117 7.05859 50.8359 6.39062C51.1602 5.71875 51.625 5.20508 52.2305 4.84961C52.8398 4.49023 53.5527 4.31055 54.3691 4.31055C55.2012 4.31055 56.0371 4.51172 56.877 4.91406L56.291 6.39062C55.9707 6.23828 55.6484 6.10547 55.3242 5.99219C55 5.87891 54.6816 5.82227 54.3691 5.82227ZM60.0293 13H58.2422V3.88281H60.0293V13ZM61.834 4.75586C61.834 4.17383 62.1582 3.88281 62.8066 3.88281C63.4551 3.88281 63.7793 4.17383 63.7793 4.75586C63.7793 5.0332 63.6973 5.25 63.5332 5.40625C63.373 5.55859 63.1309 5.63477 62.8066 5.63477C62.1582 5.63477 61.834 5.3418 61.834 4.75586ZM63.6973 13H61.9102V6.44922H63.6973V13ZM68.291 7.59766C67.9121 7.59766 67.6152 7.71875 67.4004 7.96094C67.1855 8.19922 67.0625 8.53906 67.0312 8.98047H69.5391C69.5312 8.53906 69.416 8.19922 69.1934 7.96094C68.9707 7.71875 68.6699 7.59766 68.291 7.59766ZM68.543 13.1172C67.4883 13.1172 66.6641 12.8262 66.0703 12.2441C65.4766 11.6621 65.1797 10.8379 65.1797 9.77148C65.1797 8.67383 65.4531 7.82617 66 7.22852C66.5508 6.62695 67.3105 6.32617 68.2793 6.32617C69.2051 6.32617 69.9258 6.58984 70.4414 7.11719C70.957 7.64453 71.2148 8.37305 71.2148 9.30273V10.1699H66.9902C67.0098 10.6777 67.1602 11.0742 67.4414 11.3594C67.7227 11.6445 68.1172 11.7871 68.625 11.7871C69.0195 11.7871 69.3926 11.7461 69.7441 11.6641C70.0957 11.582 70.4629 11.4512 70.8457 11.2715V12.6543C70.5332 12.8105 70.1992 12.9258 69.8438 13C69.4883 13.0781 69.0547 13.1172 68.543 13.1172ZM78.7148 13H76.9277V9.17383C76.9277 8.70117 76.8438 8.34766 76.6758 8.11328C76.5078 7.875 76.2402 7.75586 75.873 7.75586C75.373 7.75586 75.0117 7.92383 74.7891 8.25977C74.5664 8.5918 74.4551 9.14453 74.4551 9.91797V13H72.668V6.44922H74.0332L74.2734 7.28711H74.373C74.5723 6.9707 74.8457 6.73242 75.1934 6.57227C75.5449 6.4082 75.9434 6.32617 76.3887 6.32617C77.1504 6.32617 77.7285 6.5332 78.123 6.94727C78.5176 7.35742 78.7148 7.95117 78.7148 8.72852V13ZM83.3145 11.6934C83.627 11.6934 84.002 11.625 84.4395 11.4883V12.8184C83.9941 13.0176 83.4473 13.1172 82.7988 13.1172C82.084 13.1172 81.5625 12.9375 81.2344 12.5781C80.9102 12.2148 80.748 11.6719 80.748 10.9492V7.79102H79.8926V7.03516L80.877 6.4375L81.3926 5.05469H82.5352V6.44922H84.3691V7.79102H82.5352V10.9492C82.5352 11.2031 82.6055 11.3906 82.7461 11.5117C82.8906 11.6328 83.0801 11.6934 83.3145 11.6934ZM90.8438 8.23633H91.4297C92.0039 8.23633 92.4277 8.14062 92.7012 7.94922C92.9746 7.75781 93.1113 7.45703 93.1113 7.04688C93.1113 6.64062 92.9707 6.35156 92.6895 6.17969C92.4121 6.00781 91.9805 5.92188 91.3945 5.92188H90.8438V8.23633ZM90.8438 9.71289V13H89.0273V4.43359H91.5234C92.6875 4.43359 93.5488 4.64648 94.1074 5.07227C94.666 5.49414 94.9453 6.13672 94.9453 7C94.9453 7.50391 94.8066 7.95312 94.5293 8.34766C94.252 8.73828 93.8594 9.04492 93.3516 9.26758C94.6406 11.1934 95.4805 12.4375 95.8711 13H93.8555L91.8105 9.71289H90.8438ZM99.5215 7.59766C99.1426 7.59766 98.8457 7.71875 98.6309 7.96094C98.416 8.19922 98.293 8.53906 98.2617 8.98047H100.77C100.762 8.53906 100.646 8.19922 100.424 7.96094C100.201 7.71875 99.9004 7.59766 99.5215 7.59766ZM99.7734 13.1172C98.7188 13.1172 97.8945 12.8262 97.3008 12.2441C96.707 11.6621 96.4102 10.8379 96.4102 9.77148C96.4102 8.67383 96.6836 7.82617 97.2305 7.22852C97.7812 6.62695 98.541 6.32617 99.5098 6.32617C100.436 6.32617 101.156 6.58984 101.672 7.11719C102.188 7.64453 102.445 8.37305 102.445 9.30273V10.1699H98.2207C98.2402 10.6777 98.3906 11.0742 98.6719 11.3594C98.9531 11.6445 99.3477 11.7871 99.8555 11.7871C100.25 11.7871 100.623 11.7461 100.975 11.6641C101.326 11.582 101.693 11.4512 102.076 11.2715V12.6543C101.764 12.8105 101.43 12.9258 101.074 13C100.719 13.0781 100.285 13.1172 99.7734 13.1172ZM106.611 11.7168C107.064 11.7168 107.396 11.5879 107.607 11.3301C107.818 11.0684 107.934 10.6133 107.953 9.96484V9.74805C107.953 9.04492 107.844 8.54102 107.625 8.23633C107.41 7.93164 107.062 7.7793 106.582 7.7793C105.742 7.7793 105.322 8.43945 105.322 9.75977C105.322 10.416 105.426 10.9062 105.633 11.2305C105.844 11.5547 106.17 11.7168 106.611 11.7168ZM105.973 13.1172C105.199 13.1172 104.594 12.8203 104.156 12.2266C103.719 11.6289 103.5 10.7988 103.5 9.73633C103.5 8.66602 103.723 7.83008 104.168 7.22852C104.617 6.62695 105.23 6.32617 106.008 6.32617C106.422 6.32617 106.783 6.4043 107.092 6.56055C107.4 6.7168 107.672 6.95898 107.906 7.28711H107.953L108.111 6.44922H109.623V15.8828H107.83V13.1348C107.83 12.8965 107.855 12.5684 107.906 12.1504H107.83C107.639 12.4668 107.385 12.707 107.068 12.8711C106.752 13.0352 106.387 13.1172 105.973 13.1172ZM116.133 13L115.893 12.1621H115.799C115.607 12.4668 115.336 12.7031 114.984 12.8711C114.633 13.0352 114.232 13.1172 113.783 13.1172C113.014 13.1172 112.434 12.9121 112.043 12.502C111.652 12.0879 111.457 11.4941 111.457 10.7207V6.44922H113.244V10.2754C113.244 10.748 113.328 11.1035 113.496 11.3418C113.664 11.5762 113.932 11.6934 114.299 11.6934C114.799 11.6934 115.16 11.5273 115.383 11.1953C115.605 10.8594 115.717 10.3047 115.717 9.53125V6.44922H117.504V13H116.133ZM122.092 7.59766C121.713 7.59766 121.416 7.71875 121.201 7.96094C120.986 8.19922 120.863 8.53906 120.832 8.98047H123.34C123.332 8.53906 123.217 8.19922 122.994 7.96094C122.771 7.71875 122.471 7.59766 122.092 7.59766ZM122.344 13.1172C121.289 13.1172 120.465 12.8262 119.871 12.2441C119.277 11.6621 118.98 10.8379 118.98 9.77148C118.98 8.67383 119.254 7.82617 119.801 7.22852C120.352 6.62695 121.111 6.32617 122.08 6.32617C123.006 6.32617 123.727 6.58984 124.242 7.11719C124.758 7.64453 125.016 8.37305 125.016 9.30273V10.1699H120.791C120.811 10.6777 120.961 11.0742 121.242 11.3594C121.523 11.6445 121.918 11.7871 122.426 11.7871C122.82 11.7871 123.193 11.7461 123.545 11.6641C123.896 11.582 124.264 11.4512 124.646 11.2715V12.6543C124.334 12.8105 124 12.9258 123.645 13C123.289 13.0781 122.855 13.1172 122.344 13.1172ZM131.039 11.0547C131.039 11.7266 130.805 12.2383 130.336 12.5898C129.871 12.9414 129.174 13.1172 128.244 13.1172C127.768 13.1172 127.361 13.084 127.025 13.0176C126.689 12.9551 126.375 12.8613 126.082 12.7363V11.2598C126.414 11.416 126.787 11.5469 127.201 11.6523C127.619 11.7578 127.986 11.8105 128.303 11.8105C128.951 11.8105 129.275 11.623 129.275 11.248C129.275 11.1074 129.232 10.9941 129.146 10.9082C129.061 10.8184 128.912 10.7188 128.701 10.6094C128.49 10.4961 128.209 10.3652 127.857 10.2168C127.354 10.0059 126.982 9.81055 126.744 9.63086C126.51 9.45117 126.338 9.24609 126.229 9.01562C126.123 8.78125 126.07 8.49414 126.07 8.1543C126.07 7.57227 126.295 7.12305 126.744 6.80664C127.197 6.48633 127.838 6.32617 128.666 6.32617C129.455 6.32617 130.223 6.49805 130.969 6.8418L130.43 8.13086C130.102 7.99023 129.795 7.875 129.51 7.78516C129.225 7.69531 128.934 7.65039 128.637 7.65039C128.109 7.65039 127.846 7.79297 127.846 8.07812C127.846 8.23828 127.93 8.37695 128.098 8.49414C128.27 8.61133 128.643 8.78516 129.217 9.01562C129.729 9.22266 130.104 9.41602 130.342 9.5957C130.58 9.77539 130.756 9.98242 130.869 10.2168C130.982 10.4512 131.039 10.7305 131.039 11.0547ZM135.193 11.6934C135.506 11.6934 135.881 11.625 136.318 11.4883V12.8184C135.873 13.0176 135.326 13.1172 134.678 13.1172C133.963 13.1172 133.441 12.9375 133.113 12.5781C132.789 12.2148 132.627 11.6719 132.627 10.9492V7.79102H131.771V7.03516L132.756 6.4375L133.271 5.05469H134.414V6.44922H136.248V7.79102H134.414V10.9492C134.414 11.2031 134.484 11.3906 134.625 11.5117C134.77 11.6328 134.959 11.6934 135.193 11.6934Z" transform="translate(422 462) scale(2)" fill="#F2994A"/>
<path d="M120.335 27.355C127.926 20.3317 134.292 15.799 140.846 13.8819M140.846 13.8819C149.686 11.2962 158.869 13.4688 171.864 20.7063C184.859 27.9438 189.874 53 145.849 53C110.629 53 47.4597 53 20.2775 53C-6.90467 53 -3.23593 29.7295 10.7721 16.4321C18.9036 8.71311 29.6881 7.43282 39.2884 10.5751M140.846 13.8819C128.021 -2.07222 102.204 -2.56415 92.3187 7.68508M80.8121 20.7063C84.7101 14.9989 86.3417 13.8819 92.3187 7.68508M56.7984 23.5557C52.5457 17.4264 46.2263 12.8459 39.2884 10.5751M39.2884 10.5751C57.8655 -1.63004 69.1123 -4.1541 92.3187 7.68508" transform="translate(22 24) scale(2)" stroke="#9B51E0" stroke-width="2" stroke-linecap="round"/>
<path d="M9.20215 15.4316C9.20215 16.5918 8.7832 17.5059 7.94531 18.1738C7.11328 18.8418 5.95312 19.1758 4.46484 19.1758C3.09375 19.1758 1.88086 18.918 0.826172 18.4023V15.8711C1.69336 16.2578 2.42578 16.5303 3.02344 16.6885C3.62695 16.8467 4.17773 16.9258 4.67578 16.9258C5.27344 16.9258 5.73047 16.8115 6.04688 16.583C6.36914 16.3545 6.53027 16.0146 6.53027 15.5635C6.53027 15.3115 6.45996 15.0889 6.31934 14.8955C6.17871 14.6963 5.9707 14.5059 5.69531 14.3242C5.42578 14.1426 4.87207 13.8525 4.03418 13.4541C3.24902 13.085 2.66016 12.7305 2.26758 12.3906C1.875 12.0508 1.56152 11.6553 1.32715 11.2041C1.09277 10.7529 0.975586 10.2256 0.975586 9.62207C0.975586 8.48535 1.35938 7.5918 2.12695 6.94141C2.90039 6.29102 3.9668 5.96582 5.32617 5.96582C5.99414 5.96582 6.62988 6.04492 7.2334 6.20312C7.84277 6.36133 8.47852 6.58398 9.14062 6.87109L8.26172 8.98926C7.57617 8.70801 7.00781 8.51172 6.55664 8.40039C6.11133 8.28906 5.67188 8.2334 5.23828 8.2334C4.72266 8.2334 4.32715 8.35352 4.05176 8.59375C3.77637 8.83398 3.63867 9.14746 3.63867 9.53418C3.63867 9.77441 3.69434 9.98535 3.80566 10.167C3.91699 10.3428 4.09277 10.5156 4.33301 10.6855C4.5791 10.8496 5.15625 11.1484 6.06445 11.582C7.26562 12.1562 8.08887 12.7334 8.53418 13.3135C8.97949 13.8877 9.20215 14.5938 9.20215 15.4316ZM19.3975 19L18.6416 15.5635L17.6221 11.2217H17.5605L15.7676 19H12.8848L10.0898 9.17383H12.7617L13.8955 13.5244C14.0771 14.3037 14.2617 15.3789 14.4492 16.75H14.502C14.5254 16.3047 14.6279 15.5986 14.8096 14.6318L14.9502 13.8848L16.1631 9.17383H19.1162L20.2676 13.8848C20.291 14.0137 20.3262 14.2041 20.373 14.4561C20.4258 14.708 20.4756 14.9775 20.5225 15.2646C20.5693 15.5459 20.6104 15.8242 20.6455 16.0996C20.6865 16.3691 20.71 16.5859 20.7158 16.75H20.7686C20.8213 16.3281 20.915 15.751 21.0498 15.0186C21.1846 14.2803 21.2812 13.7822 21.3398 13.5244L22.5176 9.17383H25.1455L22.3154 19H19.3975ZM32.9766 19L32.458 17.6641H32.3877C31.9365 18.2324 31.4707 18.6279 30.9902 18.8506C30.5156 19.0674 29.8945 19.1758 29.127 19.1758C28.1836 19.1758 27.4395 18.9062 26.8945 18.3672C26.3555 17.8281 26.0859 17.0605 26.0859 16.0645C26.0859 15.0215 26.4492 14.2539 27.1758 13.7617C27.9082 13.2637 29.0098 12.9883 30.4805 12.9355L32.1855 12.8828V12.4521C32.1855 11.4561 31.6758 10.958 30.6562 10.958C29.8711 10.958 28.9482 11.1953 27.8877 11.6699L27 9.85938C28.1309 9.26758 29.3848 8.97168 30.7617 8.97168C32.0801 8.97168 33.0908 9.25879 33.7939 9.83301C34.4971 10.4072 34.8486 11.2803 34.8486 12.4521V19H32.9766ZM32.1855 14.4473L31.1484 14.4824C30.3691 14.5059 29.7891 14.6465 29.4082 14.9043C29.0273 15.1621 28.8369 15.5547 28.8369 16.082C28.8369 16.8379 29.2705 17.2158 30.1377 17.2158C30.7588 17.2158 31.2539 17.0371 31.623 16.6797C31.998 16.3223 32.1855 15.8477 32.1855 15.2559V14.4473ZM43.1016 8.98926C43.4648 8.98926 43.7666 9.01562 44.0068 9.06836L43.8047 11.582C43.5879 11.5234 43.3242 11.4941 43.0137 11.4941C42.1582 11.4941 41.4902 11.7139 41.0098 12.1533C40.5352 12.5928 40.2979 13.208 40.2979 13.999V19H37.6172V9.17383H39.6475L40.043 10.8262H40.1748C40.4795 10.2754 40.8896 9.83301 41.4053 9.49902C41.9268 9.15918 42.4922 8.98926 43.1016 8.98926ZM54.5889 19H51.9082V13.2607C51.9082 12.5518 51.7881 12.0215 51.5479 11.6699C51.3135 11.3125 50.9414 11.1338 50.4316 11.1338C49.7461 11.1338 49.248 11.3857 48.9375 11.8896C48.627 12.3936 48.4717 13.2227 48.4717 14.377V19H45.791V9.17383H47.8389L48.1992 10.4307H48.3486C48.6123 9.97949 48.9932 9.62793 49.4912 9.37598C49.9893 9.11816 50.5605 8.98926 51.2051 8.98926C52.6758 8.98926 53.6719 9.46973 54.1934 10.4307H54.4307C54.6943 9.97363 55.0811 9.61914 55.5908 9.36719C56.1064 9.11523 56.6865 8.98926 57.3311 8.98926C58.4443 8.98926 59.2852 9.27637 59.8535 9.85059C60.4277 10.4189 60.7148 11.333 60.7148 12.5928V19H58.0254V13.2607C58.0254 12.5518 57.9053 12.0215 57.665 11.6699C57.4307 11.3125 57.0586 11.1338 56.5488 11.1338C55.8926 11.1338 55.4004 11.3682 55.0723 11.8369C54.75 12.3057 54.5889 13.0498 54.5889 14.0693V19Z" transform="translate(132 76) scale(2)" fill="#9B51E0"/>
<path d="M8 1H137C140.866 1 144 4.13401 144 8V34C144 37.866 140.866 41 137 41H8C4.13401 41 1 37.866 1 34V8C1 4.13401 4.13401 1 8 1Z" transform="translate(50 230) scale(2)" stroke="black" stroke-width="2"/>
<path d="M13.0166 19H9.55371L3.96387 9.2793H3.88477C3.99609 10.9961 4.05176 12.2207 4.05176 12.9531V19H1.61719V6.15039H5.05371L10.6348 15.7744H10.6963C10.6084 14.1045 10.5645 12.9238 10.5645 12.2324V6.15039H13.0166V19ZM18.1846 14.0693C18.1846 15.042 18.3428 15.7773 18.6592 16.2754C18.9814 16.7734 19.5029 17.0225 20.2236 17.0225C20.9385 17.0225 21.4512 16.7764 21.7617 16.2842C22.0781 15.7861 22.2363 15.0479 22.2363 14.0693C22.2363 13.0967 22.0781 12.3672 21.7617 11.8809C21.4453 11.3945 20.9268 11.1514 20.2061 11.1514C19.4912 11.1514 18.9756 11.3945 18.6592 11.8809C18.3428 12.3613 18.1846 13.0908 18.1846 14.0693ZM24.9785 14.0693C24.9785 15.6689 24.5566 16.9199 23.7129 17.8223C22.8691 18.7246 21.6943 19.1758 20.1885 19.1758C19.2451 19.1758 18.4131 18.9707 17.6924 18.5605C16.9717 18.1445 16.418 17.5498 16.0312 16.7764C15.6445 16.0029 15.4512 15.1006 15.4512 14.0693C15.4512 12.4639 15.8701 11.2158 16.708 10.3252C17.5459 9.43457 18.7236 8.98926 20.2412 8.98926C21.1846 8.98926 22.0166 9.19434 22.7373 9.60449C23.458 10.0146 24.0117 10.6035 24.3984 11.3711C24.7852 12.1387 24.9785 13.0381 24.9785 14.0693ZM30.3047 19.1758C29.1504 19.1758 28.2422 18.7275 27.5801 17.8311C26.9238 16.9346 26.5957 15.6924 26.5957 14.1045C26.5957 12.4932 26.9297 11.2393 27.5977 10.3428C28.2715 9.44043 29.1973 8.98926 30.375 8.98926C31.6113 8.98926 32.5547 9.46973 33.2051 10.4307H33.293C33.1582 9.69824 33.0908 9.04492 33.0908 8.4707V5.32422H35.7803V19H33.7236L33.2051 17.7256H33.0908C32.4814 18.6924 31.5527 19.1758 30.3047 19.1758ZM31.2451 17.04C31.9307 17.04 32.4316 16.8408 32.748 16.4424C33.0703 16.0439 33.2461 15.3672 33.2754 14.4121V14.1221C33.2754 13.0674 33.1113 12.3115 32.7832 11.8545C32.4609 11.3975 31.9336 11.1689 31.2012 11.1689C30.6035 11.1689 30.1377 11.4238 29.8037 11.9336C29.4756 12.4375 29.3115 13.1729 29.3115 14.1396C29.3115 15.1064 29.4785 15.833 29.8125 16.3193C30.1465 16.7998 30.624 17.04 31.2451 17.04ZM42.6533 10.8965C42.085 10.8965 41.6396 11.0781 41.3174 11.4414C40.9951 11.7988 40.8105 12.3086 40.7637 12.9707H44.5254C44.5137 12.3086 44.3408 11.7988 44.0068 11.4414C43.6729 11.0781 43.2217 10.8965 42.6533 10.8965ZM43.0312 19.1758C41.4492 19.1758 40.2129 18.7393 39.3223 17.8662C38.4316 16.9932 37.9863 15.7568 37.9863 14.1572C37.9863 12.5107 38.3965 11.2393 39.2168 10.3428C40.043 9.44043 41.1826 8.98926 42.6357 8.98926C44.0244 8.98926 45.1055 9.38477 45.8789 10.1758C46.6523 10.9668 47.0391 12.0596 47.0391 13.4541V14.7549H40.7021C40.7314 15.5166 40.957 16.1113 41.3789 16.5391C41.8008 16.9668 42.3926 17.1807 43.1543 17.1807C43.7461 17.1807 44.3057 17.1191 44.833 16.9961C45.3604 16.873 45.9111 16.6768 46.4854 16.4072V18.4814C46.0166 18.7158 45.5156 18.8887 44.9824 19C44.4492 19.1172 43.7988 19.1758 43.0312 19.1758Z" transform="translate(154 246) scale(2)" fill="black"/>
<path d="M8 1H137C140.866 1 144 4.13401 144 8V34C144 37.866 140.866 41 137 41H8C4.13401 41 1 37.866 1 34V8C1 4.13401 4.13401 1 8 1Z" transform="translate(50 414) scale(2)" stroke="#2F80ED" stroke-width="2"/>
<path d="M7.0752 8.2334C6.0498 8.2334 5.25586 8.62012 4.69336 9.39355C4.13086 10.1611 3.84961 11.2334 3.84961 12.6104C3.84961 15.4756 4.9248 16.9082 7.0752 16.9082C7.97754 16.9082 9.07031 16.6826 10.3535 16.2314V18.5166C9.29883 18.9561 8.12109 19.1758 6.82031 19.1758C4.95117 19.1758 3.52148 18.6104 2.53125 17.4795C1.54102 16.3428 1.0459 14.7139 1.0459 12.5928C1.0459 11.2568 1.28906 10.0879 1.77539 9.08594C2.26172 8.07812 2.95898 7.30762 3.86719 6.77441C4.78125 6.23535 5.85059 5.96582 7.0752 5.96582C8.32324 5.96582 9.57715 6.26758 10.8369 6.87109L9.95801 9.08594C9.47754 8.85742 8.99414 8.6582 8.50781 8.48828C8.02148 8.31836 7.54395 8.2334 7.0752 8.2334ZM15.5654 19H12.8848V5.32422H15.5654V19ZM18.2725 6.63379C18.2725 5.76074 18.7588 5.32422 19.7314 5.32422C20.7041 5.32422 21.1904 5.76074 21.1904 6.63379C21.1904 7.0498 21.0674 7.375 20.8213 7.60938C20.5811 7.83789 20.2178 7.95215 19.7314 7.95215C18.7588 7.95215 18.2725 7.5127 18.2725 6.63379ZM21.0674 19H18.3867V9.17383H21.0674V19ZM27.958 10.8965C27.3896 10.8965 26.9443 11.0781 26.6221 11.4414C26.2998 11.7988 26.1152 12.3086 26.0684 12.9707H29.8301C29.8184 12.3086 29.6455 11.7988 29.3115 11.4414C28.9775 11.0781 28.5264 10.8965 27.958 10.8965ZM28.3359 19.1758C26.7539 19.1758 25.5176 18.7393 24.627 17.8662C23.7363 16.9932 23.291 15.7568 23.291 14.1572C23.291 12.5107 23.7012 11.2393 24.5215 10.3428C25.3477 9.44043 26.4873 8.98926 27.9404 8.98926C29.3291 8.98926 30.4102 9.38477 31.1836 10.1758C31.957 10.9668 32.3438 12.0596 32.3438 13.4541V14.7549H26.0068C26.0361 15.5166 26.2617 16.1113 26.6836 16.5391C27.1055 16.9668 27.6973 17.1807 28.459 17.1807C29.0508 17.1807 29.6104 17.1191 30.1377 16.9961C30.665 16.873 31.2158 16.6768 31.79 16.4072V18.4814C31.3213 18.7158 30.8203 18.8887 30.2871 19C29.7539 19.1172 29.1035 19.1758 28.3359 19.1758ZM43.5938 19H40.9131V13.2607C40.9131 12.5518 40.7871 12.0215 40.5352 11.6699C40.2832 11.3125 39.8818 11.1338 39.3311 11.1338C38.5811 11.1338 38.0391 11.3857 37.7051 11.8896C37.3711 12.3877 37.2041 13.2168 37.2041 14.377V19H34.5234V9.17383H36.5713L36.9316 10.4307H37.0811C37.3799 9.95605 37.79 9.59863 38.3115 9.3584C38.8389 9.1123 39.4365 8.98926 40.1045 8.98926C41.2471 8.98926 42.1143 9.2998 42.7061 9.9209C43.2979 10.5361 43.5938 11.4268 43.5938 12.5928V19ZM50.4932 17.04C50.9619 17.04 51.5244 16.9375 52.1807 16.7324V18.7275C51.5127 19.0264 50.6924 19.1758 49.7197 19.1758C48.6475 19.1758 47.8652 18.9062 47.373 18.3672C46.8867 17.8223 46.6436 17.0078 46.6436 15.9238V11.1865H45.3604V10.0527L46.8369 9.15625L47.6104 7.08203H49.3242V9.17383H52.0752V11.1865H49.3242V15.9238C49.3242 16.3047 49.4297 16.5859 49.6406 16.7676C49.8574 16.9492 50.1416 17.04 50.4932 17.04Z" transform="translate(142 432) scale(2)" fill="#2F80ED"/>
<rect width="19" height="57" transform="translate(80 216) scale(2)" fill="white"/>
<path d="M0 0L15 8.66025V-8.66025L0 0ZM33 -1.5H13.5V1.5H33V-1.5Z" transform="translate(296 146) scale(2) rotate(90)" fill="#F2994A"/>
<path d="M125 0L110 -8.66025V8.66025L125 0ZM0 1.5H111.5V-1.5H0V1.5Z" transform="translate(98 146) scale(2) rotate(90)" fill="#F2994A"/>
<path d="M0 0L15 8.66025V-8.66025L0 0ZM33 -1.5H13.5V1.5H33V-1.5Z" transform="translate(248 146) scale(2) rotate(90)" fill="#6FCF97"/>
<path d="M33.5 0L18.5 -8.66025V8.66025L33.5 0ZM0 1.5H20V-1.5H0V1.5Z" transform="translate(150 146) scale(2) rotate(90)" fill="#6FCF97"/>
<path d="M0 0L15 8.66025V-8.66025L0 0ZM33 -1.5H13.5V1.5H33V-1.5Z" transform="translate(248 330) scale(2) rotate(90)" fill="#EB5757"/>
<path d="M33.5 0L18.5 -8.66025V8.66025L33.5 0ZM0 1.5H20V-1.5H0V1.5Z" transform="translate(150 330) scale(2) rotate(90)" fill="#EB5757"/>
</svg>
